<?xml version="1.0" encoding="utf-8"?>
<!-- Generator: Adobe Illustrator 21.0.0, SVG Export Plug-In . SVG Version: 6.00 Build 0)  -->
<svg version="1.1" id="Layer_1" xmlns="http://www.w3.org/2000/svg" xmlns:xlink="http://www.w3.org/1999/xlink" x="0px" y="0px"
	 viewBox="0 0 71.8 71.8" style="enable-background:new 0 0 71.8 71.8;" xml:space="preserve">
<style type="text/css">
	.st0{fill:#2684FF;}
	.st1{fill:url(#SVGID_1_);}
	.st2{fill:url(#SVGID_2_);}
</style>
<title>Jira-blue</title>
<g>
	<path class="st0" d="M68.8,0H34.2c0,8.6,7,15.6,15.6,15.6l0,0h6.4v6.2c0,8.6,7,15.6,15.6,15.6V3C71.8,1.3,70.5,0,68.8,0z"/>
	
		<linearGradient id="SVGID_1_" gradientUnits="userSpaceOnUse" x1="53.9628" y1="55.9873" x2="39.2528" y2="40.8173" gradientTransform="matrix(1 0 0 -1 0 73.28)">
		<stop  offset="0.18" style="stop-color:#0052CC"/>
		<stop  offset="1" style="stop-color:#2684FF"/>
	</linearGradient>
	<path class="st1" d="M51.7,17.2H17.1c0,8.6,7,15.6,15.6,15.6h6.4V39c0,8.6,7,15.6,15.6,15.6V20.2C54.7,18.6,53.4,17.2,51.7,17.2z"
		/>
	
		<linearGradient id="SVGID_2_" gradientUnits="userSpaceOnUse" x1="37.828" y1="38.662" x2="20.818" y2="22.122" gradientTransform="matrix(1 0 0 -1 0 73.28)">
		<stop  offset="0.18" style="stop-color:#0052CC"/>
		<stop  offset="1" style="stop-color:#2684FF"/>
	</linearGradient>
	<path class="st2" d="M34.6,34.4H0c0,8.6,7,15.6,15.6,15.6l0,0H22v6.2c0,8.6,7,15.6,15.6,15.6V37.4C37.6,35.8,36.2,34.4,34.6,34.4z"
		/>
</g>
</svg>
