<svg xmlns="http://www.w3.org/2000/svg" xmlns:xlink="http://www.w3.org/1999/xlink" id="svg" version="1.1" width="400" height="129.56618464961068" viewBox="0, 0, 400,129.56618464961068"><g id="svgg"><path id="path0" d="M110.260 48.125 C 110.073 49.720,109.658 52.038,109.417 52.833 C 109.292 53.246,108.985 54.258,108.736 55.083 C 108.486 55.908,108.224 56.659,108.154 56.752 C 108.083 56.845,107.858 57.370,107.653 57.919 C 107.320 58.811,105.799 61.824,105.466 62.250 C 105.394 62.342,104.965 62.979,104.512 63.667 C 104.060 64.354,103.309 65.363,102.845 65.909 C 101.777 67.165,101.757 67.110,103.327 67.249 L 104.654 67.367 104.140 68.392 C 103.614 69.441,101.833 72.517,101.666 72.667 C 101.614 72.712,101.315 73.162,101.000 73.667 C 100.685 74.171,100.384 74.621,100.330 74.667 C 100.277 74.712,99.974 75.125,99.658 75.583 C 99.342 76.042,99.039 76.454,98.985 76.500 C 98.931 76.546,98.645 76.921,98.349 77.333 C 95.939 80.694,90.623 86.087,85.500 90.368 C 85.100 90.703,80.857 93.859,80.001 94.459 C 68.596 102.453,56.288 105.832,44.667 104.161 C 41.735 103.739,35.635 101.876,34.333 101.004 C 33.630 100.533,32.500 99.998,32.500 100.136 C 32.500 100.207,33.306 100.961,34.292 101.811 C 35.277 102.661,36.233 103.486,36.417 103.645 C 40.608 107.279,47.502 110.742,53.070 112.010 C 60.010 113.592,70.273 112.300,77.797 108.898 C 78.281 108.679,78.716 108.500,78.765 108.500 C 78.992 108.500,83.012 106.567,83.745 106.105 C 84.783 105.452,89.144 102.528,89.396 102.317 C 89.499 102.231,90.258 101.662,91.083 101.052 C 91.908 100.443,92.818 99.750,93.105 99.514 C 93.392 99.277,93.952 98.821,94.350 98.500 C 96.912 96.434,101.755 91.764,103.944 89.250 C 106.488 86.328,106.855 85.883,107.998 84.333 C 109.406 82.424,111.422 79.449,111.830 78.677 C 111.948 78.454,112.117 78.191,112.204 78.094 C 112.445 77.827,113.581 75.743,114.250 74.344 L 114.842 73.105 115.129 73.610 C 116.422 75.880,116.402 75.869,116.645 74.458 C 117.336 70.431,117.310 65.443,116.575 61.333 C 116.319 59.906,115.062 55.393,114.834 55.083 C 114.766 54.992,114.553 54.488,114.360 53.964 C 113.603 51.910,110.922 47.167,110.518 47.167 C 110.438 47.167,110.321 47.598,110.260 48.125 " stroke="none" fill="#3cb44c" fill-rule="evenodd"/><path id="path1" d="M98.017 26.714 C 97.908 27.100,97.750 27.567,97.668 27.750 C 97.585 27.933,97.278 28.871,96.985 29.833 C 96.693 30.796,96.401 31.658,96.338 31.750 C 96.275 31.842,96.053 32.404,95.844 33.000 C 94.355 37.262,91.389 42.800,89.385 45.060 C 88.466 46.096,88.459 46.076,89.819 46.319 L 90.971 46.525 90.554 47.721 C 90.324 48.379,89.956 49.313,89.735 49.797 C 89.514 50.281,89.333 50.711,89.333 50.752 C 89.333 50.922,87.317 54.873,87.166 55.000 C 87.111 55.046,86.816 55.533,86.511 56.083 C 86.205 56.633,85.906 57.121,85.847 57.167 C 85.788 57.212,85.481 57.663,85.167 58.167 C 84.852 58.671,84.545 59.121,84.485 59.167 C 84.425 59.212,84.235 59.482,84.063 59.764 C 83.891 60.047,83.542 60.535,83.287 60.848 C 83.033 61.161,82.245 62.129,81.537 63.000 C 79.065 66.040,74.497 70.458,71.510 72.697 C 70.768 73.254,67.847 75.353,66.917 75.998 C 66.269 76.447,63.845 77.990,63.135 78.406 C 62.831 78.583,62.021 79.056,61.333 79.456 C 51.078 85.428,40.112 88.101,33.333 86.280 C 31.742 85.852,27.833 84.116,27.833 83.837 C 27.833 83.777,27.530 83.558,27.160 83.350 C 25.422 82.373,21.333 77.599,21.333 76.547 C 21.333 76.429,21.250 76.333,21.149 76.333 C 20.753 76.333,21.264 80.680,21.942 83.083 C 24.520 92.220,32.704 97.670,43.833 97.662 C 46.145 97.661,48.676 97.460,50.000 97.172 C 50.413 97.083,51.688 96.814,52.833 96.576 C 55.734 95.973,60.063 94.553,62.833 93.296 C 64.520 92.531,68.422 90.621,68.500 90.522 C 68.547 90.464,68.922 90.238,69.334 90.020 C 71.260 89.000,76.250 85.682,78.250 84.091 C 78.892 83.581,79.675 82.957,79.990 82.706 C 83.065 80.258,88.507 74.826,90.717 72.000 C 96.017 65.222,98.850 60.406,101.158 54.250 C 101.364 53.700,101.595 53.100,101.672 52.917 C 101.749 52.733,101.859 52.415,101.917 52.210 C 102.016 51.857,102.069 51.883,102.875 52.676 C 103.474 53.266,103.762 53.451,103.842 53.300 C 104.255 52.516,104.119 47.613,103.583 43.956 C 103.131 40.878,101.061 32.752,100.346 31.250 C 100.258 31.067,99.946 30.204,99.651 29.333 C 99.357 28.462,99.062 27.675,98.996 27.583 C 98.931 27.492,98.787 27.136,98.676 26.794 C 98.395 25.922,98.247 25.903,98.017 26.714 M176.083 35.979 C 173.658 36.613,172.693 37.935,171.148 42.736 C 170.585 44.485,169.692 47.229,169.165 48.833 C 168.637 50.438,167.703 53.325,167.090 55.250 C 166.477 57.175,165.907 58.900,165.822 59.083 C 165.738 59.267,165.416 60.242,165.108 61.250 C 164.356 63.710,162.168 70.499,161.994 70.917 C 161.917 71.100,161.317 72.938,160.660 75.000 C 160.003 77.063,159.368 78.975,159.249 79.250 C 159.130 79.525,159.007 79.882,158.975 80.043 C 158.942 80.206,158.042 78.620,156.940 76.460 C 155.852 74.328,153.912 70.521,152.628 68.000 C 147.871 58.659,145.661 54.322,143.794 50.667 C 142.741 48.604,140.763 44.723,139.398 42.042 L 136.917 37.167 131.292 37.167 C 128.198 37.167,125.667 37.204,125.667 37.251 C 125.667 37.330,126.170 38.408,128.001 42.250 C 128.438 43.167,129.075 44.517,129.416 45.250 C 130.311 47.173,131.161 48.970,132.252 51.250 C 133.325 53.490,134.479 55.923,135.415 57.917 C 136.143 59.468,137.179 61.643,138.751 64.917 C 139.367 66.200,140.341 68.262,140.917 69.500 C 141.493 70.737,142.467 72.800,143.082 74.083 C 145.228 78.560,145.799 79.759,146.415 81.083 C 147.529 83.479,148.192 84.881,149.289 87.167 C 149.883 88.404,150.859 90.467,151.459 91.750 C 152.567 94.120,152.719 94.408,153.485 95.574 C 156.563 100.257,162.300 99.606,164.005 94.378 C 164.208 93.758,164.476 93.025,164.600 92.750 C 164.725 92.475,165.044 91.612,165.309 90.833 C 166.630 86.950,168.365 82.028,168.570 81.583 C 168.697 81.308,168.994 80.483,169.231 79.750 C 169.468 79.017,170.039 77.367,170.501 76.083 C 170.962 74.800,171.566 73.075,171.844 72.250 C 172.122 71.425,172.420 70.600,172.506 70.417 C 172.592 70.233,173.197 68.546,173.850 66.667 C 175.102 63.062,176.177 60.029,176.449 59.333 C 176.539 59.104,176.937 57.966,177.335 56.805 L 178.058 54.693 178.586 56.222 C 178.876 57.062,179.395 58.538,179.737 59.500 C 180.080 60.462,180.617 62.000,180.931 62.917 C 181.245 63.833,181.549 64.696,181.607 64.833 C 181.746 65.161,182.672 67.774,184.146 72.000 C 184.801 73.879,185.386 75.529,185.445 75.667 C 185.546 75.902,185.836 76.715,187.467 81.333 C 187.839 82.387,188.437 84.075,188.795 85.083 C 189.153 86.092,190.052 88.642,190.791 90.750 C 193.184 97.568,193.953 98.480,197.442 98.638 C 200.692 98.785,201.982 97.419,205.349 90.270 C 206.563 87.692,208.060 84.533,208.676 83.250 C 209.292 81.967,210.067 80.335,210.398 79.625 C 210.729 78.915,211.271 77.752,211.603 77.042 C 211.934 76.331,212.638 74.850,213.168 73.750 C 214.801 70.359,215.993 67.846,217.084 65.500 C 217.659 64.262,218.672 62.125,219.333 60.750 C 219.995 59.375,220.800 57.688,221.121 57.000 C 221.442 56.313,222.034 55.056,222.436 54.208 C 222.838 53.360,223.513 51.935,223.937 51.042 C 224.361 50.148,225.176 48.442,225.748 47.250 C 226.821 45.014,227.512 43.553,228.585 41.250 C 228.927 40.517,229.479 39.354,229.811 38.667 C 230.144 37.979,230.442 37.359,230.473 37.289 C 230.504 37.219,227.967 37.182,224.835 37.206 L 219.140 37.250 216.685 42.083 C 215.335 44.742,213.081 49.167,211.676 51.917 C 210.271 54.667,208.073 58.979,206.790 61.500 C 205.507 64.021,203.407 68.146,202.123 70.667 C 200.839 73.188,199.228 76.356,198.544 77.708 C 197.396 79.975,197.000 80.544,197.000 79.928 C 197.000 79.797,196.448 78.016,195.773 75.970 C 195.098 73.924,194.043 70.675,193.429 68.750 C 192.816 66.825,192.249 65.100,192.171 64.917 C 192.093 64.733,191.526 63.008,190.912 61.083 C 190.297 59.158,189.503 56.703,189.147 55.628 C 188.791 54.552,188.500 53.589,188.500 53.486 C 188.500 53.384,188.395 53.064,188.267 52.775 C 188.000 52.172,185.830 45.489,185.832 45.275 C 185.833 45.197,185.729 44.897,185.601 44.609 C 185.473 44.320,185.059 43.121,184.680 41.945 C 183.121 37.101,181.968 35.987,178.417 35.895 C 177.408 35.869,176.358 35.907,176.083 35.979 M245.366 36.001 C 243.731 36.346,242.290 37.519,240.960 39.589 C 240.200 40.773,240.015 41.142,238.104 45.282 C 237.504 46.583,236.719 48.270,236.359 49.032 C 235.658 50.518,234.612 52.749,233.795 54.500 C 233.517 55.096,233.000 56.202,232.645 56.958 C 232.290 57.715,231.692 58.990,231.316 59.792 C 230.940 60.594,230.350 61.850,230.004 62.583 C 229.235 64.213,228.394 66.006,227.622 67.667 C 227.303 68.354,226.686 69.667,226.252 70.583 C 225.147 72.914,224.461 74.377,223.774 75.862 C 223.449 76.565,222.814 77.915,222.363 78.862 C 221.912 79.809,221.352 80.996,221.120 81.500 C 220.710 82.386,219.636 84.685,218.667 86.750 C 215.628 93.220,213.833 97.102,213.833 97.206 C 213.833 97.276,216.443 97.333,219.634 97.333 L 225.434 97.333 226.120 95.875 C 226.498 95.073,227.231 93.479,227.749 92.333 C 229.039 89.483,229.582 88.299,230.764 85.761 L 231.777 83.583 247.199 83.541 L 262.620 83.498 263.084 84.541 C 263.505 85.487,263.856 86.243,265.581 89.917 C 265.882 90.558,266.443 91.758,266.828 92.583 C 267.214 93.408,267.874 94.815,268.297 95.708 L 269.065 97.333 274.951 97.333 L 280.838 97.333 280.603 96.792 C 280.391 96.300,278.508 92.241,277.337 89.750 C 277.079 89.200,276.588 88.150,276.247 87.417 C 275.905 86.683,275.344 85.483,274.998 84.750 C 274.128 82.903,273.468 81.490,271.498 77.250 C 269.194 72.292,268.752 71.344,267.881 69.500 C 267.470 68.629,266.959 67.542,266.747 67.083 C 265.753 64.934,265.148 63.635,264.518 62.292 C 264.141 61.490,263.527 60.177,263.152 59.375 C 262.777 58.573,262.259 57.467,262.000 56.917 C 261.741 56.367,261.038 54.852,260.437 53.552 C 259.837 52.251,259.036 50.526,258.657 49.718 C 257.800 47.893,257.171 46.543,256.575 45.250 C 253.676 38.953,252.570 37.360,250.435 36.400 C 249.311 35.895,246.804 35.698,245.366 36.001 M343.655 36.052 C 340.863 36.838,339.688 38.429,336.001 46.417 C 335.705 47.058,335.178 48.183,334.830 48.917 C 334.171 50.305,333.181 52.419,332.253 54.417 C 330.683 57.796,330.093 59.062,328.835 61.750 C 328.492 62.483,327.742 64.096,327.169 65.333 C 326.596 66.571,325.649 68.585,325.064 69.809 C 324.479 71.033,324.000 72.061,324.000 72.093 C 324.000 72.126,323.400 73.401,322.667 74.927 C 321.933 76.453,321.333 77.727,321.333 77.758 C 321.333 77.789,320.930 78.662,320.436 79.699 C 319.382 81.913,317.972 84.913,316.398 88.292 C 315.771 89.639,315.129 90.997,313.663 94.083 C 313.184 95.092,312.654 96.235,312.485 96.625 L 312.179 97.333 318.089 97.333 C 321.709 97.333,324.000 97.272,324.000 97.175 C 324.000 97.088,324.439 96.094,324.976 94.967 C 325.513 93.839,326.197 92.354,326.496 91.667 C 326.795 90.979,327.098 90.342,327.169 90.250 C 327.240 90.158,327.502 89.596,327.751 89.000 C 328.158 88.029,328.792 86.629,329.883 84.298 L 330.250 83.513 345.636 83.506 L 361.022 83.500 361.694 84.958 C 362.575 86.867,363.219 88.247,364.086 90.083 C 364.476 90.908,365.094 92.221,365.461 93.000 C 365.827 93.779,366.437 95.073,366.815 95.875 L 367.503 97.333 373.335 97.333 C 376.771 97.333,379.167 97.270,379.167 97.180 C 379.167 97.096,378.765 96.177,378.274 95.138 C 377.782 94.100,377.172 92.800,376.918 92.250 C 376.126 90.536,375.318 88.803,374.665 87.417 C 373.864 85.718,373.270 84.445,371.167 79.917 C 369.365 76.040,368.651 74.506,367.732 72.542 C 367.421 71.877,366.912 70.790,366.601 70.125 C 366.290 69.460,365.758 68.317,365.418 67.583 C 364.562 65.737,364.014 64.569,362.932 62.282 C 362.419 61.200,362.000 60.285,362.000 60.250 C 362.000 60.215,361.581 59.300,361.068 58.218 C 360.556 57.136,359.911 55.762,359.634 55.167 C 358.911 53.607,358.289 52.272,357.576 50.750 C 357.233 50.017,356.748 48.967,356.498 48.417 C 353.362 41.511,352.285 39.485,350.907 37.900 C 349.420 36.190,346.138 35.354,343.655 36.052 M266.888 37.410 C 265.333 38.086,265.344 39.445,266.932 42.805 C 267.336 43.661,267.667 44.390,267.667 44.427 C 267.667 44.463,267.920 45.038,268.230 45.705 C 268.539 46.371,268.844 47.085,268.908 47.292 L 269.022 47.667 279.595 47.667 L 290.167 47.667 290.167 72.500 L 290.167 97.333 296.417 97.333 L 302.667 97.333 302.667 72.500 L 302.667 47.667 313.128 47.667 L 323.590 47.667 324.073 46.375 C 324.339 45.665,324.607 45.008,324.668 44.917 C 324.729 44.825,324.953 44.300,325.165 43.750 C 325.378 43.200,325.698 42.417,325.878 42.010 C 327.015 39.431,326.873 38.015,325.418 37.407 C 324.575 37.054,267.698 37.057,266.888 37.410 M248.330 52.212 C 248.698 53.015,249.000 53.709,249.000 53.754 C 249.000 53.798,249.329 54.528,249.731 55.376 C 250.612 57.233,251.204 58.514,252.254 60.833 C 253.084 62.668,255.691 68.346,256.518 70.118 C 256.783 70.687,257.000 71.194,257.000 71.244 C 257.000 71.294,257.181 71.710,257.402 72.167 L 257.803 73.000 247.131 73.000 C 238.618 73.000,236.492 72.958,236.621 72.792 C 236.710 72.677,237.255 71.533,237.832 70.250 C 238.409 68.967,239.171 67.296,239.524 66.538 C 239.878 65.780,240.167 65.126,240.167 65.085 C 240.167 65.043,240.495 64.313,240.896 63.463 C 241.892 61.349,242.328 60.401,243.333 58.167 C 244.262 56.103,244.583 55.403,245.670 53.083 C 246.056 52.258,246.558 51.171,246.786 50.667 L 247.199 49.750 247.429 50.250 C 247.556 50.525,247.961 51.408,248.330 52.212 M346.573 51.792 C 347.026 52.777,347.682 54.204,348.031 54.962 C 348.381 55.720,348.667 56.371,348.667 56.410 C 348.667 56.449,349.031 57.253,349.476 58.198 C 350.475 60.321,350.912 61.268,351.921 63.500 C 353.504 67.001,355.698 71.765,356.009 72.375 L 356.328 73.000 345.676 73.000 L 335.025 73.000 335.666 71.542 C 336.018 70.740,336.454 69.783,336.634 69.417 C 336.815 69.050,337.354 67.887,337.833 66.833 C 338.312 65.779,338.958 64.371,339.269 63.705 C 339.579 63.038,339.833 62.459,339.833 62.418 C 339.833 62.376,340.161 61.647,340.562 60.796 C 340.963 59.946,341.498 58.800,341.751 58.250 C 342.004 57.700,342.501 56.630,342.855 55.872 C 343.210 55.114,343.500 54.459,343.500 54.417 C 343.500 54.374,343.809 53.682,344.188 52.878 C 344.566 52.074,345.013 51.098,345.182 50.708 C 345.603 49.734,345.642 49.764,346.573 51.792 " stroke="none" fill="#ec1c24" fill-rule="evenodd"/><path id="path2" d="M82.667 22.249 C 81.869 24.348,79.808 28.553,78.734 30.274 C 76.576 33.731,74.652 36.286,72.726 38.254 C 72.006 38.990,70.893 40.054,70.253 40.618 C 68.902 41.808,68.900 41.791,70.468 41.936 C 71.127 41.998,71.667 42.070,71.667 42.098 C 71.667 42.496,69.240 46.979,68.833 47.333 C 68.780 47.379,68.371 47.904,67.924 48.500 C 65.364 51.913,61.150 55.710,56.250 59.017 C 48.397 64.318,41.770 66.572,36.739 65.653 C 31.076 64.618,25.992 57.421,25.947 50.374 C 25.935 48.340,25.893 48.289,25.371 49.667 C 18.413 68.015,25.997 79.459,43.333 76.773 C 49.880 75.759,57.431 72.679,63.228 68.659 C 63.949 68.159,64.706 67.637,64.910 67.500 C 69.224 64.585,75.159 58.471,78.401 53.602 C 79.461 52.010,81.932 47.492,82.376 46.333 C 82.447 46.147,82.642 46.273,83.145 46.833 C 83.920 47.696,83.995 47.662,84.408 46.250 C 86.183 40.195,86.083 32.788,84.124 25.333 C 83.270 22.085,82.971 21.450,82.667 22.249 " stroke="none" fill="#941c1c" fill-rule="evenodd"/><path id="path3" d="" stroke="none" fill="#64b834" fill-rule="evenodd"/><path id="path4" d="" stroke="none" fill="#c06c34" fill-rule="evenodd"/></g></svg>